HIERARCHY
ROOT hip
{
  OFFSET 0 0 0
  CHANNELS 6 Xposition Yposition Zposition Zrotation Yrotation Xrotation
  JOINT abdomen
  {
    OFFSET 0 20.6881 -0.73152
    CHANNELS 3 Zrotation Xrotation Yrotation
    JOINT chest
    {
      OFFSET 0 11.7043 -0.48768
      CHANNELS 3 Zrotation Xrotation Yrotation
      JOINT neck
      {
        OFFSET 0 22.1894 -2.19456
        CHANNELS 3 Zrotation Xrotation Yrotation
        JOINT head
        {
          OFFSET -0.24384 7.07133 1.2192
          CHANNELS 3 Zrotation Xrotation Yrotation
          JOINT leftEye
          {
            OFFSET 4.14528 8.04674 8.04672
            CHANNELS 3 Zrotation Xrotation Yrotation
            End Site
            {
              OFFSET 1 0 0
            }
          }
          JOINT rightEye
          {
            OFFSET -3.6576 8.04674 8.04672
            CHANNELS 3 Zrotation Xrotation Yrotation
            End Site
            {
              OFFSET 1 0 0
            }
          }
        }
      }
      JOINT rCollar
      {
        OFFSET -2.68224 19.2634 -4.8768
        CHANNELS 3 Zrotation Xrotation Yrotation
        JOINT rShldr
        {
          OFFSET -8.77824 -1.95073 1.46304
          CHANNELS 3 Zrotation Xrotation Yrotation
          JOINT rForeArm
          {
            OFFSET -28.1742 -1.7115 0.48768
            CHANNELS 3 Zrotation Xrotation Yrotation
            JOINT rHand
            {
              OFFSET -22.5879 0.773209 7.07136
              CHANNELS 3 Zrotation Xrotation Yrotation
              JOINT rThumb1
              {
                OFFSET -1.2192 -0.487915 3.41376
                CHANNELS 3 Zrotation Xrotation Yrotation
                JOINT rThumb2
                {
                  OFFSET -3.37035 -0.52449 3.41376
                  CHANNELS 3 Zrotation Xrotation Yrotation
                  End Site
                  {
                    OFFSET -1.78271 -1.18214 1.43049
                  }
                }
              }
              JOINT rIndex1
              {
                OFFSET -7.75947 0.938293 5.60832
                CHANNELS 3 Zrotation Xrotation Yrotation
                JOINT rIndex2
                {
                  OFFSET -2.54057 -0.884171 1.56538
                  CHANNELS 3 Zrotation Xrotation Yrotation
                  End Site
                  {
                    OFFSET -1.62519 -0.234802 1.16502
                  }
                }
              }
              JOINT rMid1
              {
                OFFSET -8.24714 1.18213 3.41376
                CHANNELS 3 Zrotation Xrotation Yrotation
                JOINT rMid2
                {
                  OFFSET -3.10165 -0.590103 1.0647
                  CHANNELS 3 Zrotation Xrotation Yrotation
                  End Site
                  {
                    OFFSET -2.48547 -0.328903 0.83742
                  }
                }
              }
              JOINT rRing1
              {
                OFFSET -8.82822 0.546677 1.51678
                CHANNELS 3 Zrotation Xrotation Yrotation
                JOINT rRing2
                {
                  OFFSET -2.60934 -0.819778 -0.0198488
                  CHANNELS 3 Zrotation Xrotation Yrotation
                  End Site
                  {
                    OFFSET -2.33842 -0.294052 0.168128
                  }
                }
              }
              JOINT rPinky1
              {
                OFFSET -8.27202 -0.0477905 -0.4584
                CHANNELS 3 Zrotation Xrotation Yrotation
                JOINT rPinky2
                {
                  OFFSET -1.82734 -0.647385 -0.700984
                  CHANNELS 3 Zrotation Xrotation Yrotation
                  End Site
                  {
                    OFFSET -1.69225 -0.51767 -0.607171
                  }
                }
              }
            }
          }
        }
      }
      JOINT lCollar
      {
        OFFSET 2.68224 19.2634 -4.8768
        CHANNELS 3 Zrotation Xrotation Yrotation
        JOINT lShldr
        {
          OFFSET 8.77824 -1.95073 1.46304
          CHANNELS 3 Zrotation Xrotation Yrotation
          JOINT lForeArm
          {
            OFFSET 28.1742 -1.7115 0.48768
            CHANNELS 3 Zrotation Xrotation Yrotation
            JOINT lHand
            {
              OFFSET 22.5879 0.773209 7.07136
              CHANNELS 3 Zrotation Xrotation Yrotation
              JOINT lThumb1
              {
                OFFSET 1.2192 -0.487915 3.41376
                CHANNELS 3 Zrotation Xrotation Yrotation
                JOINT lThumb2
                {
                  OFFSET 3.37035 -0.52449 3.41376
                  CHANNELS 3 Zrotation Xrotation Yrotation
                  End Site
                  {
                    OFFSET 1.78271 -1.18214 1.43049
                  }
                }
              }
              JOINT lIndex1
              {
                OFFSET 7.75947 0.938293 5.60832
                CHANNELS 3 Zrotation Xrotation Yrotation
                JOINT lIndex2
                {
                  OFFSET 2.54057 -0.884171 1.56538
                  CHANNELS 3 Zrotation Xrotation Yrotation
                  End Site
                  {
                    OFFSET 1.62519 -0.234802 1.16502
                  }
                }
              }
              JOINT lMid1
              {
                OFFSET 8.24714 1.18213 3.41376
                CHANNELS 3 Zrotation Xrotation Yrotation
                JOINT lMid2
                {
                  OFFSET 3.10165 -0.590103 1.0647
                  CHANNELS 3 Zrotation Xrotation Yrotation
                  End Site
                  {
                    OFFSET 2.48547 -0.328903 0.83742
                  }
                }
              }
              JOINT lRing1
              {
                OFFSET 8.82822 0.546677 1.51678
                CHANNELS 3 Zrotation Xrotation Yrotation
                JOINT lRing2
                {
                  OFFSET 2.60934 -0.819778 -0.0198488
                  CHANNELS 3 Zrotation Xrotation Yrotation
                  End Site
                  {
                    OFFSET 2.33842 -0.294052 0.168128
                  }
                }
              }
              JOINT lPinky1
              {
                OFFSET 8.27202 -0.0477905 -0.4584
                CHANNELS 3 Zrotation Xrotation Yrotation
                JOINT lPinky2
                {
                  OFFSET 1.82734 -0.647385 -0.700984
                  CHANNELS 3 Zrotation Xrotation Yrotation
                  End Site
                  {
                    OFFSET 1.69225 -0.51767 -0.607171
                  }
                }
              }
            }
          }
        }
      }
    }
  }
  JOINT rButtock
  {
    OFFSET -8.77824 4.35084 1.2192
    CHANNELS 3 Zrotation Xrotation Yrotation
    JOINT rThigh
    {
      OFFSET 0 -1.70687 -2.19456
      CHANNELS 3 Zrotation Xrotation Yrotation
      JOINT rShin
      {
        OFFSET 0 -36.8199 0.73152
        CHANNELS 3 Zrotation Xrotation Yrotation
        JOINT rFoot
        {
          OFFSET 0.73152 -45.1104 -5.12064
          CHANNELS 3 Zrotation Xrotation Yrotation
          End Site
          {
            OFFSET -1.1221 -3.69964 12.103
          }
        }
      }
    }
  }
  JOINT lButtock
  {
    OFFSET 8.77824 4.35084 1.2192
    CHANNELS 3 Zrotation Xrotation Yrotation
    JOINT lThigh
    {
      OFFSET 0 -1.70687 -2.19456
      CHANNELS 3 Zrotation Xrotation Yrotation
      JOINT lShin
      {
        OFFSET 0 -36.8199 0.73152
        CHANNELS 3 Zrotation Xrotation Yrotation
        JOINT lFoot
        {
          OFFSET -0.73152 -45.1104 -5.12064
          CHANNELS 3 Zrotation Xrotation Yrotation
          End Site
          {
            OFFSET 1.1221 -3.69964 12.103
          }
        }
      }
    }
  }
}
MOTION
Frames:	4
Frame Time:	0.03333
-21.1888 56.2285 2.73039 -12.83650016784668 -17.25440216064453 12.890602111816406 6.490659236907959 4.218910217285156 17.148401260375977 -1.6405199766159058 -8.493890762329102 4.527499675750732 -3.901789665222168 12.156000137329102 -2.4414098262786865 6.382389545440674 -28.591800689697266 -2.9974703788757324 -0.0 0.0 -0.0 -0.0 0.0 -0.0 -2.660379783223782e-13 -3.586349966999691e-13 3.454819709394069e-14 31.499998092651367 38.776405334472656 37.342891693115234 -27.47220230102539 -42.5984001159668 88.72100067138672 -0.22872601449489594 13.495098114013672 1.9328504800796509 1.3304900514654605e-09 2.7926199130945406e-09 -1.3964299716562323e-09 2.276060007133651e-09 4.7698796024064904e-09 -2.4221398220447554e-09 1.3304900514654605e-09 2.7926199130945406e-09 -1.3964499556706755e-09 7.730909824371338 5.474879741668701 0.4173140823841095 1.3304900514654605e-09 2.7926199130945406e-09 -1.3964299716562323e-09 2.9055399894714355 0.9651829600334167 0.10290199518203735 1.3304900514654605e-09 2.7926199130945406e-09 -1.3964299716562323e-09 10.27859878540039 0.73180091381073 0.025912316516041756 1.3304799484359364e-09 2.7926199130945406e-09 -1.3964199796490107e-09 2.221669912338257 -0.733487069606781 -0.208919957280159 -2.660719680604856e-13 -3.586410140220264e-13 3.427019749252004e-14 -64.03060150146484 25.61840057373047 -1.5569506883621216 26.92209815979004 -44.22339630126953 -91.88600158691406 1.1621899604797363 -29.048603057861328 4.477830410003662 8.573630139174782e-10 -1.2751399935950758e-08 2.492519968200213e-09 1.4317298457910965e-09 -2.1857800902580493e-08 4.316760282563337e-09 8.57358906092287e-10 -1.2751399935950758e-08 2.4925299602074347e-09 -7.730909824371338 5.474879741668701 -0.4173140823841095 8.573640131182003e-10 -1.2751399935950758e-08 2.4925299602074347e-09 -2.9055399894714355 0.9651829600334167 -0.10290199518203735 8.573559640012718e-10 -1.2751399935950758e-08 2.492519968200213e-09 -10.27859878540039 0.73180091381073 -0.025912316516041756 8.573679544099377e-10 -1.2751399935950758e-08 2.4925099761929914e-09 -2.221669912338257 -0.733487069606781 0.208919957280159 -2.0321699480147914e-16 0.0 -3.8825099822884138e-19 -2.6414098739624023 4.634600639343262 -5.446909427642822 -0.3407839834690094 51.15279769897461 2.5084402561187744 -4.219039440155029 -9.036030769348145 -24.02880096435547 2.0321699480147914e-16 0.0 3.8825099822884138e-19 61.1829948425293 -63.805904388427734 65.87079620361328 4.309800148010254 77.76202392578125 -4.10897970199585 6.577000141143799 -5.980289936065674 22.532102584838867
-20.9463 56.9186 4.191419999999999 -11.534099578857422 -14.975001335144043 11.41550064086914 4.403969764709473 4.728729724884033 17.899097442626953 -1.231529951095581 -8.78320026397705 4.760770320892334 -4.290249824523926 12.289999008178711 -3.5447497367858887 7.019659042358398 -27.881799697875977 -5.062460422515869 -0.0 0.0 -0.0 -0.0 0.0 -0.0 3.200079903755565e-13 -4.465050020257405e-13 -1.6548801174895433e-13 30.390701293945312 37.150901794433594 36.895198822021484 -27.37369728088379 -42.92660140991211 89.34510040283203 -0.22811098396778107 13.477100372314453 1.930180311203003 -2.3009699701148634e-10 8.075439206223223e-10 -2.3001001103750696e-10 -3.9783101812851385e-10 1.401540106193977e-09 -3.9129299800322315e-10 -2.301029783380315e-10 8.075259905204746e-10 -2.3003698945700535e-10 7.730909824371338 5.474879741668701 0.4173140823841095 -2.3009599781076417e-10 8.07540978531307e-10 -2.300109963604413e-10 2.9055399894714355 0.9651829600334167 0.10290199518203735 -2.3009398553153204e-10 8.075389801298627e-10 -2.3000798488048702e-10 10.27859878540039 0.73180091381073 0.025912316516041756 -2.3010199301509715e-10 8.075399793305849e-10 -2.2999999127470971e-10 2.221669912338257 -0.733487069606781 -0.208919957280159 3.198639812219961e-13 -4.465230268868581e-13 -1.657069934827421e-13 -65.76909637451172 25.908802032470703 0.4071926474571228 27.070398330688477 -43.82440185546875 -91.09669494628906 1.240379810333252 -29.913497924804688 4.638279438018799 2.318800040868041e-09 -1.8595699202705873e-08 2.426959966328468e-09 3.962560057857445e-09 -3.218499955437437e-08 4.230989780751315e-09 2.318800040868041e-09 -1.8595699202705873e-08 2.426959966328468e-09 -7.730909824371338 5.474879741668701 -0.4173140823841095 2.318800040868041e-09 -1.8595699202705873e-08 2.426959966328468e-09 -2.9055399894714355 0.9651829600334167 -0.10290199518203735 2.3187898268162144e-09 -1.8595699202705873e-08 2.426959966328468e-09 -10.27859878540039 0.73180091381073 -0.025912316516041756 2.318800040868041e-09 -1.8595699202705873e-08 2.4269499743212464e-09 -2.221669912338257 -0.733487069606781 0.208919957280159 -2.0321699480147914e-16 0.0 -3.8825099822884138e-19 -3.936619997024536 2.454770088195801 -6.675610542297363 -0.6691609621047974 59.027408599853516 2.6859002113342285 -1.43934965133667 -4.109250068664551 -16.48270034790039 2.0321699480147914e-16 0.0 3.8825099822884138e-19 50.99729537963867 -64.71109771728516 56.00639343261719 3.8156397342681885 76.518310546875 -3.62716007232666 6.564299583435059 -6.124560832977295 22.863101959228516
-20.7464 57.49819999999999 5.66298 -10.217599868774414 -12.637899398803711 9.986100196838379 1.9397999048233032 5.093889236450195 18.622900009155273 -0.6420509815216064 -8.8720703125 4.990429878234863 -4.613480091094971 12.552800178527832 -4.598119735717773 7.709480285644531 -27.516000747680664 -7.009999752044678 -0.0 0.0 -0.0 -0.0 0.0 -0.0 4.282950133872171e-13 -4.1669399593151357e-13 -1.5761198769725926e-13 29.757497787475586 35.51740264892578 35.531497955322266 -27.321603775024414 -43.084598541259766 89.65699768066406 -0.23266299068927765 13.609498977661133 1.949859857559204 -4.892139471301959e-10 2.6611199355208726e-10 1.3203399484851275e-10 -8.400319884138696e-10 4.815419729631287e-10 2.36710984147237e-10 -4.892209415352511e-10 2.6609400793908833e-10 1.320080017519487e-10 7.730909824371338 5.474879741668701 0.4173140823841095 -4.89213003440625e-10 2.661079967491986e-10 1.3203399484851275e-10 2.9055399894714355 0.9651829600334167 0.10290199518203735 -4.892100058384585e-10 2.661059983477543e-10 1.3203399484851275e-10 10.27859878540039 0.73180091381073 0.025912316516041756 -4.89218998644958e-10 2.661059983477543e-10 1.320429876550122e-10 2.221669912338257 -0.733487069606781 -0.208919957280159 4.2812896782450094e-13 -4.1671096369551297e-13 -1.5780199412798734e-13 -66.9729995727539 25.900297164916992 2.0956995487213135 27.22709846496582 -43.38029861450195 -90.22039031982422 1.2307698726654053 -29.814403533935547 4.619529724121094 2.359010098373915e-09 -1.8499401122085146e-08 2.3964898954176306e-09 4.033720024665399e-09 -3.208930010600852e-08 4.1788696947264725e-09 2.359010098373915e-09 -1.8499401122085146e-08 2.3964898954176306e-09 -7.730909824371338 5.474879741668701 -0.4173140823841095 2.3590198683365315e-09 -1.8499401122085146e-08 2.396480125455014e-09 -2.9055399894714355 0.9651829600334167 -0.10290199518203735 2.3589998843220883e-09 -1.8499401122085146e-08 2.396480125455014e-09 -10.27859878540039 0.73180091381073 -0.025912316516041756 2.359010098373915e-09 -1.8499401122085146e-08 2.396480125455014e-09 -2.221669912338257 -0.733487069606781 0.208919957280159 -2.0321699480147914e-16 0.0 -3.8825099822884138e-19 -5.5351996421813965 -1.178550124168396 -8.11633014678955 -1.286730170249939 67.0016098022461 3.1208503246307373 -0.8227019309997559 -3.8863203525543213 -8.985699653625488 2.0321699480147914e-16 0.0 3.8825099822884138e-19 41.110897064208984 -64.70269775390625 46.7411994934082 3.446810007095337 75.35169982910156 -3.2105801105499268 6.517700672149658 -6.335710048675537 22.944499969482422
-20.5889 58.039999999999985 7.18913 -8.954000473022461 -10.344999313354492 8.664899826049805 -0.8958888649940491 5.316200256347656 19.31869888305664 0.12547099590301514 -8.760701179504395 5.216050148010254 -4.8647894859313965 12.944502830505371 -5.6031293869018555 8.40824031829834 -27.496301651000977 -8.8597993850708 -0.0 0.0 -0.0 -0.0 0.0 -0.0 5.882049540365322e-14 -2.692019784172883e-13 5.81763979980339e-14 29.496498107910156 33.800498962402344 33.307003021240234 -27.323097229003906 -43.07780075073242 89.64600372314453 -0.24270398914813995 13.892400741577148 1.9920299053192139 5.531339830611159e-10 1.1683299883102904e-09 -3.1030000791076873e-10 9.494559582989837e-10 2.009889810139498e-09 -5.381289303052483e-10 5.531349822618381e-10 1.1683199963030688e-09 -3.103119983194347e-10 7.730909824371338 5.474879741668701 0.4173140823841095 5.531349822618381e-10 1.1683199963030688e-09 -3.1029898095447095e-10 2.9055399894714355 0.9651829600334167 0.10290199518203735 5.53139034575878e-10 1.1683199963030688e-09 -3.1029898095447095e-10 10.27859878540039 0.73180091381073 0.025912316516041756 5.531279323456317e-10 1.1683199963030688e-09 -3.102899881479715e-10 2.221669912338257 -0.733487069606781 -0.208919957280159 5.872299852329246e-14 -2.692059899653265e-13 5.798689978707416e-14 -67.61459350585938 25.602800369262695 3.496368169784546 27.386798858642578 -42.88620376586914 -89.26549530029297 1.1354900598526 -28.751399993896484 4.423009872436523 9.77998015905257e-10 -1.246219927253378e-08 2.401099985505084e-09 1.6452200712890885e-09 -2.1570500052803254e-08 4.160400024488808e-09 9.779950183030905e-10 -1.246219927253378e-08 2.401099985505084e-09 -7.730909824371338 5.474879741668701 -0.4173140823841095 9.779990151059792e-10 -1.246219927253378e-08 2.401099985505084e-09 -2.9055399894714355 0.9651829600334167 -0.10290199518203735 9.779899112771773e-10 -1.2462299636695207e-08 2.401099985505084e-09 -10.27859878540039 0.73180091381073 -0.025912316516041756 9.780000143067014e-10 -1.246219927253378e-08 2.4010899934978625e-09 -2.221669912338257 -0.733487069606781 0.208919957280159 -2.0321699480147914e-16 0.0 -3.8825099822884138e-19 -7.5906596183776855 -6.23832893371582 -9.823229789733887 -2.5995800495147705 75.07190704345703 4.211400032043457 -0.3657509684562683 -8.824180603027344 -1.3047699928283691 2.0321699480147914e-16 0.0 3.8825099822884138e-19 32.144493103027344 -64.00589752197266 38.74879837036133 3.18261981010437 74.26242065429688 -2.8383400440216064 6.434659481048584 -6.614960193634033 22.776100158691406
